<svg width="24" height="42" viewBox="0 0 24 42" fill="none" xmlns="http://www.w3.org/2000/svg">
<path d="M14.7511 41.5157H8.16967C7.07035 41.5157 6.17611 40.6204 6.17611 39.52V24.6589H2.33634C1.23703 24.6589 0.342773 23.7633 0.342773 22.6632V16.2951C0.342773 15.1947 1.23703 14.2994 2.33634 14.2994H6.17611V11.1105C6.17611 7.94866 7.16787 5.25859 9.04386 3.33158C10.9283 1.39579 13.5618 0.372803 16.6597 0.372803L21.6791 0.380964C22.7766 0.382847 23.6692 1.27808 23.6692 2.37671V8.28924C23.6692 9.38975 22.7752 10.285 21.6763 10.285L18.2968 10.2862C17.2662 10.2862 17.0037 10.4931 16.9476 10.5565C16.855 10.6617 16.745 10.9589 16.745 11.7798V14.2991H21.4223C21.7745 14.2991 22.1155 14.3861 22.4087 14.5498C23.0411 14.9036 23.4343 15.5725 23.4343 16.2955L23.4318 22.6635C23.4318 23.7633 22.5375 24.6586 21.4383 24.6586H16.745V39.52C16.745 40.6204 15.8504 41.5157 14.7511 41.5157ZM8.58545 39.1037H14.3354V23.579C14.3354 22.8442 14.9327 22.2465 15.6664 22.2465H21.0225L21.0247 16.7113H15.6661C14.9324 16.7113 14.3354 16.1136 14.3354 15.3788V11.7798C14.3354 10.8374 14.431 9.7658 15.1415 8.96035C16.0001 7.98665 17.353 7.87427 18.2961 7.87427L21.2599 7.87301V2.7923L16.6578 2.78478C11.6793 2.78478 8.58545 5.9752 8.58545 11.1105V15.3788C8.58545 16.1134 7.98844 16.7113 7.25473 16.7113H2.75211V22.2465H7.25473C7.98844 22.2465 8.58545 22.8442 8.58545 23.579V39.1037ZM21.6743 2.79294H21.6748H21.6743Z" fill="white"/>
</svg>
