<svg width="42" height="42" viewBox="0 0 42 42" fill="none" xmlns="http://www.w3.org/2000/svg">
<path d="M30.5203 0.371338H11.6514C5.51035 0.371338 0.514404 5.36729 0.514404 11.5083V30.3775C0.514404 36.5183 5.51035 41.5142 11.6514 41.5142H30.5205C36.6613 41.5142 41.6573 36.5183 41.6573 30.3775V11.5083C41.6573 5.36729 36.6613 0.371338 30.5203 0.371338ZM39.2452 30.3775C39.2452 35.1883 35.3313 39.1022 30.5203 39.1022H11.6514C6.84032 39.1022 2.92638 35.1883 2.92638 30.3775V11.5083C2.92638 6.69727 6.84032 2.7833 11.6514 2.7833H30.5205C35.3313 2.7833 39.2452 6.69727 39.2452 11.5083V30.3775Z" fill="white"/>
<path d="M21.189 9.97095C15.0823 9.97095 10.1143 14.9363 10.1143 21.0399C10.1143 27.1433 15.0823 32.1087 21.189 32.1087C27.2957 32.1087 32.2635 27.1433 32.2635 21.0399C32.2635 14.9363 27.2957 9.97095 21.189 9.97095ZM21.189 29.7356C16.3919 29.7356 12.4887 25.8348 12.4887 21.0399C12.4887 16.2452 16.3919 12.3441 21.189 12.3441C25.9864 12.3441 29.8892 16.2452 29.8892 21.0399C29.8892 25.8348 25.9864 29.7356 21.189 29.7356Z" fill="white"/>
</svg>
