<svg width="42" height="28" viewBox="0 0 42 28" fill="none" xmlns="http://www.w3.org/2000/svg">
<path d="M41.3177 0.705052C40.9146 0.276677 40.2464 0.117817 39.6522 0.308449L1.91196 12.209C1.15798 12.4481 0.62875 13.0279 0.530502 13.7222C0.433193 14.4133 0.782244 15.0838 1.43703 15.4697L6.83162 18.6831C7.35426 18.9945 8.0263 19.0279 8.58598 18.7702L20.2879 13.3856L11.1678 19.3279C10.7396 19.6069 10.4838 20.052 10.4838 20.5182V26.0225C10.4838 26.5902 10.8407 27.1104 11.4151 27.3804C11.9905 27.6505 12.6854 27.6237 13.2319 27.3092L17.3305 24.937L21.3609 27.3349C21.714 27.5461 22.1346 27.6573 22.5591 27.6573C22.7024 27.6573 22.8465 27.6445 22.9884 27.6187C23.5543 27.5157 24.0551 27.2106 24.3624 26.7817L41.4372 2.21368C41.7696 1.74066 41.7219 1.13534 41.3177 0.705052ZM22.4689 25.447L18.295 22.9636C18.0047 22.7905 17.6701 22.7039 17.3358 22.7039C17.0088 22.7039 16.6813 22.7869 16.3947 22.9528L12.8958 24.9781V20.8289L29.0001 10.3361C29.7193 9.86745 29.9003 9.01454 29.421 8.35225C28.9414 7.68997 27.9812 7.4662 27.1874 7.83157L7.83891 16.7347L3.27613 14.0167L38.0296 3.0581L22.4689 25.447Z" fill="white"/>
</svg>
