<svg width="41" height="42" viewBox="0 0 41 42" fill="none" xmlns="http://www.w3.org/2000/svg">
<path d="M34.6366 6.21511C30.9936 2.44649 26.1511 0.371338 20.9989 0.371338C20.9985 0.371338 20.9973 0.371338 20.997 0.371338C18.4489 0.371652 15.9655 0.882044 13.6166 1.8887C11.2675 2.89536 9.16289 4.35089 7.36081 6.21511C3.71811 9.98343 1.71212 14.9938 1.71212 20.3231C1.71212 23.5013 2.45341 26.6597 3.85799 29.4738L0.616118 39.0545C0.387634 39.7302 0.549363 40.4648 1.0391 40.9712C1.38168 41.3258 1.83258 41.5142 2.29622 41.5142C2.49498 41.5142 2.69585 41.4796 2.89187 41.4087L12.1532 38.0553C14.8735 39.5083 17.9266 40.2752 20.9989 40.2752C26.1506 40.2752 30.9936 38.1997 34.6366 34.4315C38.2793 30.6631 40.2856 25.6528 40.2856 20.3235C40.2856 14.9938 38.2796 9.98343 34.6366 6.21511ZM32.9872 32.725C29.7851 36.038 25.5274 37.862 20.9989 37.862C18.2286 37.862 15.4764 37.1532 13.0398 35.8116C12.598 35.5687 12.0759 35.5269 11.607 35.6968L3.19286 38.7431L6.13798 30.0388C6.30213 29.5532 6.26148 29.013 6.02662 28.5562C4.73005 26.0363 4.0446 23.1893 4.0446 20.3231C4.0446 15.6386 5.80815 11.234 9.01026 7.92145C12.2121 4.60923 16.4693 2.78487 20.9973 2.78425H20.9989C25.5276 2.78425 29.7851 4.60861 32.9872 7.92145C36.1896 11.234 37.9532 15.6383 37.9532 20.3231C37.9532 25.008 36.1896 29.4126 32.9872 32.725Z" fill="white"/>
<path d="M28.201 22.3593C27.2975 21.4562 25.8272 21.4562 24.9237 22.3593L23.9355 23.347C21.4816 22.0106 19.4959 20.0259 18.1585 17.5734L19.1467 16.5855C20.0505 15.6826 20.0505 14.213 19.1467 13.3099L16.4837 10.6483C15.5801 9.74518 14.1097 9.74518 13.2062 10.6483L11.0759 12.7775C9.85563 13.9971 9.79475 16.0939 10.9044 18.6818C11.8679 20.9287 13.6311 23.3983 15.8693 25.6353C18.1075 27.8723 20.5784 29.6346 22.8264 30.5976C24.0566 31.1245 25.1755 31.3874 26.1424 31.3874C27.2107 31.3874 28.0932 31.0665 28.7338 30.4261L30.8641 28.2966V28.297C31.302 27.8592 31.5431 27.2777 31.5431 26.6591C31.5431 26.0402 31.302 25.4585 30.8641 25.0212L28.201 22.3593ZM27.054 28.7472C26.7058 29.0953 25.6347 29.2174 23.7624 28.4155C21.7854 27.5686 19.5787 25.9849 17.5491 23.9563C15.5196 21.9278 13.9352 19.7226 13.0879 17.7466C12.2854 15.8753 12.4074 14.8045 12.7557 14.4564L14.8452 12.3679L17.4261 14.9478L16.1891 16.1844C15.6298 16.7434 15.4947 17.5912 15.8535 18.2942C17.4799 21.4815 20.0253 24.0255 23.2142 25.651C23.9178 26.0096 24.7662 25.8749 25.3254 25.3156L26.5623 24.0793L29.1436 26.6591L27.054 28.7472Z" fill="white"/>
</svg>
