<svg width="180" height="107" viewBox="0 0 180 107" fill="none" xmlns="http://www.w3.org/2000/svg">
<path d="M59.7892 0.457764H32.6792V15.7637H59.7892V0.457764Z" fill="white"/>
<path d="M88.3088 0.457275H61.1987V15.7633H88.3088V0.457275Z" fill="white"/>
<path d="M59.789 17.1777H32.679V32.4837H59.789V17.1777Z" fill="white"/>
<path d="M88.3088 17.1777H61.1987V32.4837H88.3088V17.1777Z" fill="white"/>
<path d="M118.801 0.457275H91.6914V15.7633H118.801V0.457275Z" fill="white"/>
<path d="M147.321 0.457275H120.211V15.7633H147.321V0.457275Z" fill="white"/>
<path d="M118.801 17.1777H91.6914V32.4837H118.801V17.1777Z" fill="white"/>
<path d="M147.321 17.1777H120.211V32.4837H147.321V17.1777Z" fill="white"/>
<path d="M59.789 36.7285H32.679V52.0345H59.789V36.7285Z" fill="white"/>
<path d="M88.3088 36.7285H61.1987V52.0345H88.3088V36.7285Z" fill="white"/>
<path d="M59.789 53.449H32.679V68.755H59.789V53.449Z" fill="white"/>
<path d="M88.3088 53.449H61.1987V68.755H88.3088V53.449Z" fill="white"/>
<path d="M118.801 36.7285H91.6914V52.0345H118.801V36.7285Z" fill="white"/>
<path d="M147.321 36.7285H120.211V52.0345H147.321V36.7285Z" fill="white"/>
<path d="M118.801 53.449H91.6914V68.755H118.801V53.449Z" fill="white"/>
<path d="M147.321 53.449H120.211V68.755H147.321V53.449Z" fill="white"/>
<path d="M14.2579 100.431C14.2579 101.985 13.7145 103.307 12.6275 104.398C11.5406 105.489 10.2228 106.035 8.67429 106.035H1.97391C1.22942 106.035 0.857178 105.661 0.857178 104.914C0.857178 104.167 1.22942 103.793 1.97391 103.793H8.67429C9.59745 103.793 10.3866 103.464 11.0418 102.807C11.6969 102.149 12.0245 101.357 12.0245 100.431V94.8262H6.44083C5.69634 94.8262 5.3241 94.4525 5.3241 93.7053C5.3241 92.9581 5.69634 92.5844 6.44083 92.5844H12.0245V89.2218C12.0245 88.2952 11.6969 87.5031 11.0418 86.8456C10.3866 86.188 9.59745 85.8592 8.67429 85.8592H1.97391C1.22942 85.8592 0.857178 85.4856 0.857178 84.7383C0.857178 83.9911 1.22942 83.6174 1.97391 83.6174H8.67429C10.2228 83.6174 11.5406 84.1629 12.6275 85.2539C13.7145 86.3449 14.2579 87.6675 14.2579 89.2218V100.431Z" fill="white"/>
<path d="M29.87 104.914C29.87 105.661 29.4978 106.035 28.7533 106.035C28.0088 106.035 27.6365 105.661 27.6365 104.914V85.8592H24.0183L18.658 105.205C18.5091 105.758 18.1592 106.035 17.6083 106.035C16.8489 106.035 16.4692 105.676 16.4692 104.959C16.4692 104.854 16.4841 104.742 16.5139 104.623L22.0976 84.4469C22.2465 83.8939 22.6038 83.6174 23.1696 83.6174H28.7533C29.4978 83.6174 29.87 83.9911 29.87 84.7383V104.914Z" fill="white"/>
<path d="M35.7252 92.5844H41.3311C42.0756 92.5844 42.4479 92.9581 42.4479 93.7053C42.4479 94.4525 42.0756 94.8262 41.3311 94.8262H35.7252V103.793H43.5646C44.3091 103.793 44.6813 104.167 44.6813 104.914C44.6813 105.661 44.3091 106.035 43.5646 106.035H34.6084C33.8639 106.035 33.4917 105.684 33.4917 104.981V84.7383C33.4917 83.9911 33.8639 83.6174 34.6084 83.6174H43.5646C44.3091 83.6174 44.6813 83.9911 44.6813 84.7383C44.6813 85.4856 44.3091 85.8592 43.5646 85.8592H35.7252V92.5844Z" fill="white"/>
<path d="M61.8371 104.959C61.8371 105.258 61.718 105.519 61.4798 105.743C61.2416 105.953 60.9735 106.057 60.6757 106.057C60.2588 106.057 59.9387 105.856 59.7154 105.452L53.1713 93.7501L50.5135 96.373V104.914C50.5135 105.661 50.1412 106.035 49.3968 106.035C48.6523 106.035 48.28 105.661 48.28 104.914V84.7383C48.28 84.006 48.6523 83.6399 49.3968 83.6399C50.1412 83.6399 50.5135 84.006 50.5135 84.7383V93.3242L59.9164 83.9537C60.1397 83.7295 60.3928 83.6174 60.6757 83.6174C60.9735 83.6174 61.2341 83.737 61.4575 83.9761C61.6957 84.2003 61.8148 84.4618 61.8148 84.7607C61.8148 85.0447 61.7031 85.2987 61.4798 85.5229L54.8241 92.1809L61.6808 104.376C61.785 104.57 61.8371 104.765 61.8371 104.959Z" fill="white"/>
<path d="M70.3212 85.8592H65.8543C65.1098 85.8592 64.7375 85.4856 64.7375 84.7383C64.7375 83.9911 65.1098 83.6174 65.8543 83.6174H77.0216C77.7661 83.6174 78.1383 83.9911 78.1383 84.7383C78.1383 85.4856 77.7661 85.8592 77.0216 85.8592H72.5547V104.914C72.5547 105.661 72.1824 106.035 71.4379 106.035C70.6935 106.035 70.3212 105.661 70.3212 104.914V85.8592Z" fill="white"/>
<path d="M92.3631 90.3427C92.3631 89.1022 91.9238 88.0486 91.0453 87.1818C90.1817 86.3001 89.132 85.8592 87.8962 85.8592H83.4293V94.8262H87.8962C89.132 94.8262 90.1817 94.3928 91.0453 93.526C91.9238 92.6442 92.3631 91.5831 92.3631 90.3427ZM94.5965 90.3427C94.5965 92.1958 93.9414 93.78 92.6311 95.0952C91.3208 96.4103 89.7425 97.0679 87.8962 97.0679H83.4293V104.914C83.4293 105.661 83.057 106.035 82.3125 106.035C81.568 106.035 81.1958 105.661 81.1958 104.914V84.7383C81.1958 84.4394 81.3075 84.1779 81.5308 83.9537C81.7542 83.7295 82.0147 83.6174 82.3125 83.6174H87.8962C89.7425 83.6174 91.3208 84.275 92.6311 85.5902C93.9414 86.9053 94.5965 88.4895 94.5965 90.3427Z" fill="white"/>
<path d="M111.055 100.431C111.055 101.985 110.504 103.307 109.402 104.398C108.315 105.489 107.005 106.035 105.471 106.035H103.238C101.689 106.035 100.371 105.489 99.2845 104.398C98.1975 103.307 97.6541 101.985 97.6541 100.431V89.2218C97.6541 87.6825 98.1975 86.3673 99.2845 85.2763C100.371 84.1704 101.689 83.6174 103.238 83.6174H105.471C107.005 83.6174 108.315 84.1704 109.402 85.2763C110.504 86.3673 111.055 87.6825 111.055 89.2218V100.431ZM108.821 100.431V89.2218C108.821 88.2952 108.494 87.5031 107.839 86.8456C107.183 86.188 106.394 85.8592 105.471 85.8592H103.238C102.315 85.8592 101.525 86.188 100.87 86.8456C100.215 87.5031 99.8875 88.2952 99.8875 89.2218V100.431C99.8875 101.357 100.215 102.149 100.87 102.807C101.525 103.464 102.315 103.793 103.238 103.793H105.471C106.394 103.793 107.183 103.464 107.839 102.807C108.494 102.149 108.821 101.357 108.821 100.431Z" fill="white"/>
<path d="M127.513 104.914C127.513 105.661 127.14 106.035 126.396 106.035C125.651 106.035 125.279 105.661 125.279 104.914V85.8592H116.345V104.914C116.345 105.661 115.973 106.035 115.229 106.035C114.484 106.035 114.112 105.661 114.112 104.914V84.7383C114.112 83.9911 114.484 83.6174 115.229 83.6174H126.396C127.14 83.6174 127.513 83.9911 127.513 84.7383V104.914Z" fill="white"/>
<path d="M142.301 90.3427C142.301 89.1022 141.862 88.0486 140.983 87.1818C140.12 86.3001 139.07 85.8592 137.834 85.8592H133.367V94.8262H137.834C139.07 94.8262 140.12 94.3928 140.983 93.526C141.862 92.6442 142.301 91.5831 142.301 90.3427ZM144.535 90.3427C144.535 92.1958 143.879 93.78 142.569 95.0952C141.259 96.4103 139.68 97.0679 137.834 97.0679H133.367V104.914C133.367 105.661 132.995 106.035 132.251 106.035C131.506 106.035 131.134 105.661 131.134 104.914V84.7383C131.134 84.4394 131.245 84.1779 131.469 83.9537C131.692 83.7295 131.953 83.6174 132.251 83.6174H137.834C139.68 83.6174 141.259 84.275 142.569 85.5902C143.879 86.9053 144.535 88.4895 144.535 90.3427Z" fill="white"/>
<path d="M160.711 100.431C160.711 101.985 160.16 103.307 159.059 104.398C157.972 105.489 156.661 106.035 155.128 106.035H152.894C151.346 106.035 150.028 105.489 148.941 104.398C147.854 103.307 147.311 101.985 147.311 100.431V89.2218C147.311 87.6825 147.854 86.3673 148.941 85.2763C150.028 84.1704 151.346 83.6174 152.894 83.6174H155.128C156.661 83.6174 157.972 84.1704 159.059 85.2763C160.16 86.3673 160.711 87.6825 160.711 89.2218V100.431ZM158.478 100.431V89.2218C158.478 88.2952 158.15 87.5031 157.495 86.8456C156.84 86.188 156.051 85.8592 155.128 85.8592H152.894C151.971 85.8592 151.182 86.188 150.527 86.8456C149.872 87.5031 149.544 88.2952 149.544 89.2218V100.431C149.544 101.357 149.872 102.149 150.527 102.807C151.182 103.464 151.971 103.793 152.894 103.793H155.128C156.051 103.793 156.84 103.464 157.495 102.807C158.15 102.149 158.478 101.357 158.478 100.431Z" fill="white"/>
<path d="M179.143 104.914C179.143 105.661 178.771 106.035 178.026 106.035C177.282 106.035 176.909 105.661 176.909 104.914V88.9078L172.286 96.6643C172.003 97.1276 171.683 97.3592 171.326 97.3592C170.968 97.3592 170.648 97.1276 170.365 96.6643L165.72 88.9078V104.914C165.72 105.661 165.348 106.035 164.603 106.035C163.859 106.035 163.486 105.661 163.486 104.914V84.8503C163.486 83.9835 163.821 83.55 164.491 83.55C164.923 83.55 165.281 83.7892 165.563 84.2674L171.326 93.8845L177.066 84.2674C177.349 83.7892 177.699 83.55 178.115 83.55C178.8 83.55 179.143 83.9835 179.143 84.8503V104.914Z" fill="white"/>
</svg>
