<svg width="413" height="57" viewBox="0 0 413 57" fill="none" xmlns="http://www.w3.org/2000/svg">
<path d="M22.9842 0.428589H0.714111V13.002H22.9842V0.428589Z" fill="white"/>
<path d="M46.4124 0.428589H24.1423V13.002H46.4124V0.428589Z" fill="white"/>
<path d="M22.9842 14.1642H0.714111V26.7376H22.9842V14.1642Z" fill="white"/>
<path d="M46.4124 14.1642H24.1423V26.7376H46.4124V14.1642Z" fill="white"/>
<path d="M71.4615 0.428589H49.1914V13.002H71.4615V0.428589Z" fill="white"/>
<path d="M94.8894 0.428589H72.6194V13.002H94.8894V0.428589Z" fill="white"/>
<path d="M71.4615 14.1642H49.1914V26.7376H71.4615V14.1642Z" fill="white"/>
<path d="M94.8894 14.1642H72.6194V26.7376H94.8894V14.1642Z" fill="white"/>
<path d="M22.9842 30.2242H0.714111V42.7976H22.9842V30.2242Z" fill="white"/>
<path d="M46.4124 30.2242H24.1423V42.7976H46.4124V30.2242Z" fill="white"/>
<path d="M22.9842 43.9598H0.714111V56.5332H22.9842V43.9598Z" fill="white"/>
<path d="M46.4124 43.9598H24.1423V56.5332H46.4124V43.9598Z" fill="white"/>
<path d="M71.4615 30.2242H49.1914V42.7976H71.4615V30.2242Z" fill="white"/>
<path d="M94.8894 30.2242H72.6194V42.7976H94.8894V30.2242Z" fill="white"/>
<path d="M71.4615 43.9598H49.1914V56.5332H71.4615V43.9598Z" fill="white"/>
<path d="M94.8894 43.9598H72.6194V56.5332H94.8894V43.9598Z" fill="white"/>
<path d="M139.786 37.3249C139.786 39.8923 138.888 42.077 137.093 43.8791C135.297 45.6812 133.121 46.5822 130.563 46.5822H119.495C118.265 46.5822 117.65 45.9651 117.65 44.7308C117.65 43.4965 118.265 42.8793 119.495 42.8793H130.563C132.088 42.8793 133.391 42.3362 134.473 41.25C135.555 40.1638 136.097 38.8554 136.097 37.3249V28.0676H126.873C125.644 28.0676 125.029 27.4505 125.029 26.2161C125.029 24.9818 125.644 24.3647 126.873 24.3647H136.097V18.8103C136.097 17.2798 135.555 15.9714 134.473 14.8852C133.391 13.799 132.088 13.2559 130.563 13.2559H119.495C118.265 13.2559 117.65 12.6388 117.65 11.4044C117.65 10.1701 118.265 9.55298 119.495 9.55298H130.563C133.121 9.55298 135.297 10.454 137.093 12.2561C138.888 14.0582 139.786 16.2429 139.786 18.8103V37.3249Z" fill="white"/>
<path d="M165.574 44.7301C165.574 45.9645 164.959 46.5816 163.729 46.5816C162.499 46.5816 161.884 45.9645 161.884 44.7301V13.2553H155.908L147.054 45.2115C146.808 46.1249 146.23 46.5816 145.32 46.5816C144.065 46.5816 143.438 45.9892 143.438 44.8042C143.438 44.6314 143.463 44.4463 143.512 44.2488L152.735 10.9224C152.981 10.0091 153.571 9.55237 154.506 9.55237H163.729C164.959 9.55237 165.574 10.1695 165.574 11.4038V44.7301Z" fill="white"/>
<path d="M175.245 24.3641H184.505C185.735 24.3641 186.35 24.9812 186.35 26.2155C186.35 27.4498 185.735 28.067 184.505 28.067H175.245V42.8787H188.194C189.424 42.8787 190.039 43.4958 190.039 44.7301C190.039 45.9645 189.424 46.5816 188.194 46.5816H173.401C172.171 46.5816 171.556 46.0015 171.556 44.8412V11.4038C171.556 10.1695 172.171 9.55237 173.401 9.55237H188.194C189.424 9.55237 190.039 10.1695 190.039 11.4038C190.039 12.6381 189.424 13.2553 188.194 13.2553H175.245V24.3641Z" fill="white"/>
<path d="M218.377 44.8042C218.377 45.298 218.18 45.73 217.786 46.1002C217.393 46.4459 216.95 46.6187 216.458 46.6187C215.77 46.6187 215.241 46.2854 214.872 45.6189L204.062 26.2896L199.672 30.622V44.7302C199.672 45.9645 199.057 46.5816 197.828 46.5816C196.598 46.5816 195.983 45.9645 195.983 44.7302V11.4038C195.983 10.1942 196.598 9.58941 197.828 9.58941C199.057 9.58941 199.672 10.1942 199.672 11.4038V25.586L215.204 10.1078C215.573 9.73751 215.991 9.55237 216.458 9.55237C216.95 9.55237 217.38 9.74986 217.749 10.1448C218.143 10.5151 218.34 10.9471 218.34 11.4409C218.34 11.9099 218.155 12.3296 217.786 12.6999L206.792 23.6975L218.118 43.8415C218.291 44.1624 218.377 44.4833 218.377 44.8042Z" fill="white"/>
<path d="M232.391 13.2553H225.013C223.783 13.2553 223.168 12.6381 223.168 11.4038C223.168 10.1695 223.783 9.55237 225.013 9.55237H243.459C244.689 9.55237 245.304 10.1695 245.304 11.4038C245.304 12.6381 244.689 13.2553 243.459 13.2553H236.081V44.7301C236.081 45.9645 235.466 46.5816 234.236 46.5816C233.006 46.5816 232.391 45.9645 232.391 44.7301V13.2553Z" fill="white"/>
<path d="M268.8 20.6611C268.8 18.6122 268.074 16.8718 266.623 15.44C265.197 13.9835 263.463 13.2553 261.421 13.2553H254.043V28.067H261.421C263.463 28.067 265.197 27.3511 266.623 25.9193C268.074 24.4628 268.8 22.7101 268.8 20.6611ZM272.489 20.6611C272.489 23.7222 271.407 26.3389 269.243 28.5113C267.078 30.6837 264.471 31.7699 261.421 31.7699H254.043V44.7301C254.043 45.9645 253.428 46.5816 252.198 46.5816C250.969 46.5816 250.354 45.9645 250.354 44.7301V11.4038C250.354 10.9101 250.538 10.4781 250.907 10.1078C251.276 9.73751 251.706 9.55237 252.198 9.55237H261.421C264.471 9.55237 267.078 10.6386 269.243 12.811C271.407 14.9833 272.489 17.6001 272.489 20.6611Z" fill="white"/>
<path d="M299.675 37.3243C299.675 39.8917 298.764 42.0764 296.944 43.8785C295.149 45.6806 292.985 46.5816 290.451 46.5816H286.762C284.204 46.5816 282.028 45.6806 280.232 43.8785C278.437 42.0764 277.539 39.8917 277.539 37.3243V18.8097C277.539 16.267 278.437 14.0946 280.232 12.2925C282.028 10.4658 284.204 9.55237 286.762 9.55237H290.451C292.985 9.55237 295.149 10.4658 296.944 12.2925C298.764 14.0946 299.675 16.267 299.675 18.8097V37.3243ZM295.985 37.3243V18.8097C295.985 17.2791 295.444 15.9708 294.362 14.8846C293.28 13.7984 291.976 13.2553 290.451 13.2553H286.762C285.237 13.2553 283.934 13.7984 282.852 14.8846C281.769 15.9708 281.228 17.2791 281.228 18.8097V37.3243C281.228 38.8548 281.769 40.1632 282.852 41.2494C283.934 42.3356 285.237 42.8787 286.762 42.8787H290.451C291.976 42.8787 293.28 42.3356 294.362 41.2494C295.444 40.1632 295.985 38.8548 295.985 37.3243Z" fill="white"/>
<path d="M326.86 44.7301C326.86 45.9645 326.245 46.5816 325.015 46.5816C323.785 46.5816 323.171 45.9645 323.171 44.7301V13.2553H308.414V44.7301C308.414 45.9645 307.799 46.5816 306.569 46.5816C305.339 46.5816 304.724 45.9645 304.724 44.7301V11.4038C304.724 10.1695 305.339 9.55237 306.569 9.55237H325.015C326.245 9.55237 326.86 10.1695 326.86 11.4038V44.7301Z" fill="white"/>
<path d="M351.287 20.6611C351.287 18.6122 350.562 16.8718 349.111 15.44C347.684 13.9835 345.95 13.2553 343.909 13.2553H336.531V28.067H343.909C345.95 28.067 347.684 27.3511 349.111 25.9193C350.562 24.4628 351.287 22.7101 351.287 20.6611ZM354.977 20.6611C354.977 23.7222 353.895 26.3389 351.73 28.5113C349.566 30.6837 346.959 31.7699 343.909 31.7699H336.531V44.7301C336.531 45.9645 335.916 46.5816 334.686 46.5816C333.456 46.5816 332.841 45.9645 332.841 44.7301V11.4038C332.841 10.9101 333.026 10.4781 333.395 10.1078C333.764 9.73751 334.194 9.55237 334.686 9.55237H343.909C346.959 9.55237 349.566 10.6386 351.73 12.811C353.895 14.9833 354.977 17.6001 354.977 20.6611Z" fill="white"/>
<path d="M381.697 37.3243C381.697 39.8917 380.787 42.0764 378.967 43.8785C377.172 45.6806 375.007 46.5816 372.474 46.5816H368.785C366.227 46.5816 364.05 45.6806 362.255 43.8785C360.459 42.0764 359.562 39.8917 359.562 37.3243V18.8097C359.562 16.267 360.459 14.0946 362.255 12.2925C364.05 10.4658 366.227 9.55237 368.785 9.55237H372.474C375.007 9.55237 377.172 10.4658 378.967 12.2925C380.787 14.0946 381.697 16.267 381.697 18.8097V37.3243ZM378.008 37.3243V18.8097C378.008 17.2791 377.467 15.9708 376.385 14.8846C375.302 13.7984 373.999 13.2553 372.474 13.2553H368.785C367.26 13.2553 365.956 13.7984 364.874 14.8846C363.792 15.9708 363.251 17.2791 363.251 18.8097V37.3243C363.251 38.8548 363.792 40.1632 364.874 41.2494C365.956 42.3356 367.26 42.8787 368.785 42.8787H372.474C373.999 42.8787 375.302 42.3356 376.385 41.2494C377.467 40.1632 378.008 38.8548 378.008 37.3243Z" fill="white"/>
<path d="M412.143 44.7303C412.143 45.9646 411.528 46.5817 410.298 46.5817C409.068 46.5817 408.453 45.9646 408.453 44.7303V18.2914L400.817 31.1035C400.349 31.8688 399.82 32.2514 399.23 32.2514C398.64 32.2514 398.111 31.8688 397.644 31.1035L389.97 18.2914V44.7303C389.97 45.9646 389.355 46.5817 388.126 46.5817C386.896 46.5817 386.281 45.9646 386.281 44.7303V11.5891C386.281 10.1573 386.834 9.44141 387.941 9.44141C388.654 9.44141 389.245 9.83638 389.712 10.6263L399.23 26.5119L408.712 10.6263C409.179 9.83638 409.757 9.44141 410.446 9.44141C411.577 9.44141 412.143 10.1573 412.143 11.5891V44.7303Z" fill="white"/>
</svg>
